<?xml version="1.0" standalone="no"?>
<!DOCTYPE svg PUBLIC "-//W3C//DTD SVG 20010904//EN"
 "http://www.w3.org/TR/2001/REC-SVG-20010904/DTD/svg10.dtd">
<svg version="1.0" xmlns="http://www.w3.org/2000/svg"
 width="500.000000pt" height="500.000000pt" viewBox="0 0 500.000000 500.000000"
 preserveAspectRatio="xMidYMid meet">
<metadata>
Created by potrace 1.14, written by Peter Selinger 2001-2017
</metadata>
<g transform="translate(0.000000,500.000000) scale(0.100000,-0.100000)"
fill="#000000" stroke="none">
<path d="M3268 4719 c-9 -19 -26 -43 -37 -53 -27 -24 -85 -43 -127 -41 -19 1
-34 -2 -34 -7 0 -4 7 -8 15 -8 42 0 100 -64 110 -121 3 -18 8 -35 10 -38 3 -2
0 -10 -6 -17 -7 -8 -7 -14 1 -19 5 -3 10 -1 10 6 0 21 50 78 83 95 17 9 48 18
69 19 38 2 67 15 35 15 -22 0 -95 73 -101 102 -3 13 -7 41 -8 63 l-3 40 -17
-36z"/>
<path d="M2195 4540 c-37 -97 -139 -161 -244 -155 l-46 3 47 -22 c94 -43 148
-121 151 -216 1 -56 4 -56 32 -3 43 82 115 125 213 127 l62 1 -42 18 c-24 10
-44 22 -46 28 -2 5 -9 9 -16 9 -20 0 -74 83 -85 128 -5 23 -7 62 -5 87 2 25 2
45 1 45 -1 0 -11 -23 -22 -50z"/>
<path d="M2818 4136 c-62 -31 -96 -87 -94 -151 3 -63 21 -100 68 -138 103 -83
259 -15 274 119 16 135 -126 233 -248 170z m-13 -133 c2 -28 14 -67 26 -87
l21 -36 -23 8 c-37 14 -61 55 -61 102 1 36 18 77 29 67 2 -2 5 -27 8 -54z"/>
<path d="M3884 4150 c-26 -10 -44 -57 -34 -85 28 -76 140 -59 140 20 0 58 -49
88 -106 65z m74 -29 c3 -10 0 -11 -9 -5 -8 5 -20 9 -27 10 -28 5 -26 16 2 12
16 -1 32 -9 34 -17z"/>
<path d="M4354 4129 c0 -10 4 -19 8 -19 5 0 1 -16 -7 -36 -18 -44 -19 -52 -3
-36 16 16 44 15 73 -4 24 -16 24 -16 16 13 -5 17 -5 37 0 46 11 18 4 24 -35
31 -15 3 -33 9 -40 15 -8 7 -12 4 -12 -10z"/>
<path d="M673 4025 c0 -37 -24 -115 -35 -115 -5 0 -7 -4 -4 -9 3 -5 -13 -25
-37 -45 -60 -52 -67 -58 -67 -50 0 3 -6 2 -12 -4 -14 -11 -17 -12 -50 -12 -42
0 -7 -14 44 -17 29 -2 57 -8 62 -13 6 -6 16 -10 23 -10 24 0 91 -71 110 -116
21 -50 33 -56 33 -16 0 34 34 109 63 140 25 27 108 72 133 72 34 0 3 13 -37
16 -54 4 -122 38 -155 77 -27 32 -57 91 -57 115 -1 24 -14 12 -14 -13z"/>
<path d="M3894 3508 c-66 -32 -43 -138 30 -138 41 1 64 20 71 59 7 41 -7 66
-46 80 -18 6 -32 11 -33 10 -1 0 -11 -5 -22 -11z m69 -32 c4 -10 -3 -10 -29
-2 -26 8 -30 12 -16 17 21 8 39 2 45 -15z"/>
<path d="M2239 3481 c-2 -12 -7 -67 -13 -156 -3 -49 -8 -110 -11 -135 -7 -66
-16 -176 -20 -250 -2 -36 -4 -65 -5 -65 -1 0 -4 -34 -6 -75 -3 -41 -7 -91 -8
-110 -2 -19 -4 -53 -5 -74 -2 -59 -11 -37 -16 35 -2 35 -6 98 -9 139 -4 41 -8
107 -11 145 -3 39 -7 95 -10 125 -7 61 -11 120 -21 260 -3 52 -8 104 -9 115
-1 11 -3 26 -4 32 -1 9 -12 11 -33 8 -18 -2 -60 -7 -93 -10 -98 -9 -191 -21
-255 -32 -19 -3 -41 -6 -47 -6 -7 0 -13 -2 -13 -4 0 -6 54 -107 77 -145 13
-21 20 -38 17 -38 -4 0 -2 -6 4 -12 19 -24 98 -224 118 -298 19 -71 44 -195
49 -245 4 -33 9 -63 12 -67 2 -5 0 -8 -5 -8 -4 0 -14 24 -21 53 -17 69 -48
162 -72 214 -10 24 -19 47 -19 53 0 5 -5 10 -12 10 -6 0 -9 3 -5 6 16 17 -191
345 -270 427 -13 13 -27 17 -53 13 -42 -6 -155 -33 -190 -45 -14 -5 -34 -12
-45 -16 -11 -3 -15 -9 -10 -13 29 -21 113 -139 167 -237 40 -72 126 -251 133
-275 0 -3 11 -27 23 -54 12 -27 22 -53 22 -57 0 -5 4 -17 10 -27 15 -29 126
-349 135 -392 2 -8 8 -28 15 -45 6 -16 12 -32 12 -35 3 -30 51 -176 62 -189 6
-8 12 -30 12 -50 2 -60 27 -103 78 -136 34 -23 44 -25 119 -26 l57 -1 0 -38 0
-38 63 1 62 1 1 -765 c1 -421 4 -782 8 -802 4 -20 12 -37 18 -37 6 0 9 -3 5
-6 -8 -9 54 -64 78 -69 82 -19 136 -3 190 54 l30 32 3 792 c1 435 4 793 6 795
3 2 33 4 68 5 l63 2 0 35 0 35 70 5 c110 8 171 55 182 140 3 22 10 40 16 40
13 0 67 57 68 72 0 7 2 33 3 58 2 37 15 123 30 202 12 64 97 301 128 356 10
18 18 39 18 46 0 7 7 19 15 26 8 6 13 15 12 18 -2 9 67 144 161 312 42 74 82
146 89 160 8 14 23 39 33 55 10 17 19 33 19 37 1 4 -38 19 -86 33 -49 14 -99
29 -113 33 -22 7 -30 2 -68 -48 -24 -30 -49 -63 -57 -72 -29 -35 -105 -156
-105 -167 0 -6 -4 -11 -9 -11 -5 0 -11 -8 -15 -17 -3 -10 -10 -25 -16 -33 -21
-31 -93 -196 -105 -240 -1 -3 -4 -12 -7 -20 -18 -45 -30 -89 -35 -120 -3 -19
-9 -42 -13 -50 -10 -17 -5 63 6 120 4 19 8 44 10 55 4 31 14 76 26 120 6 22
12 45 14 50 8 36 63 175 100 252 24 50 44 94 44 97 0 3 14 28 30 56 17 28 30
55 30 60 0 7 -42 18 -100 25 -8 1 -31 5 -50 9 -40 7 -145 19 -239 27 -50 5
-47 13 -56 -121 -3 -47 -8 -112 -11 -145 -3 -33 -7 -85 -9 -115 -5 -85 -16
-231 -21 -275 -2 -22 -6 -78 -9 -125 -6 -93 -19 -126 -21 -52 -2 49 -13 212
-19 272 -2 19 -7 73 -10 120 -3 47 -8 108 -10 135 -2 28 -7 86 -10 130 -9 116
-15 177 -21 186 -5 9 -313 9 -315 0z"/>
</g>
</svg>
